<?xml version="1.0" encoding="UTF-8" standalone="no"?>
<svg xmlns="http://www.w3.org/2000/svg" height="25" width="112" fill="none" viewBox="0 0 112.14701 25.535461">
  <path d="m 24.081825,11.830361 -0.9973,-2.2548094 -0.4553,2.2548094 -1.4743,7.4366 h -2.4066 l 3.2955,-15.9355394 h 0.2602 l 4.3796,8.6073394 1.3008,2.8836 1.3009,-2.8836 4.2928,-8.6073394 h 0.2385 l 3.4256,15.9355394 h -2.3849 l -1.6044,-7.4366 -0.477,-2.2548094 -0.8672,2.2548094 -3.8592,7.4366 h -0.1301 z" style="fill:#285daa" />
  <path d="m 43.627925,19.483761 c -0.8961,0 -1.7272,-0.2096 -2.4933,-0.6287 -0.7516,-0.4337 -1.3586,-1.0407 -1.8212,-1.8213 -0.4481,-0.7949 -0.6721,-1.72 -0.6721,-2.7751 0,-1.0407 0.1951,-1.9513 0.5854,-2.7318 0.4047,-0.780539 0.9756,-1.387609 1.7128,-1.8212294 0.7372,-0.43362 1.6044,-0.65043 2.6017,-0.65043 0.5782,0 1.1202,0.10118 1.6261,0.30354 0.5059,0.20235 0.9323,0.4553 1.2792,0.7588304 0.3469,0.28908 0.5781,0.57816 0.6938,0.86724 l 0.0433,-1.6694404 h 2.2332 v 9.9515894 h -2.2115 l -0.0434,-1.7562 c -0.2457,0.5204 -0.6937,0.9829 -1.3442,1.3876 -0.6504,0.3903 -1.3803,0.5854 -2.1898,0.5854 z m 0.3903,-1.9513 c 0.8239,0 1.5177,-0.2818 2.0814,-0.8455 0.5637,-0.5782 0.8455,-1.3298 0.8455,-2.2549 v -0.1517 c 0,-0.6216 -0.1301,-1.178 -0.3902,-1.6695 -0.2602,-0.4914 -0.6143,-0.8744 -1.0624,-1.1491 -0.4481,-0.2746 -0.9395,-0.4119 -1.4743,-0.4119 -0.9251,0 -1.6405,0.3035 -2.1464,0.9106 -0.5059,0.5926 -0.7589,1.3659 -0.7589,2.3199 0,0.9684 0.2458,1.7561 0.7372,2.3632 0.5059,0.5926 1.2286,0.8889 2.1681,0.8889 z" style="fill:#285daa" />
  <path d="m 52.609025,9.3153716 h 2.2548 v 1.8428894 c 0.7949,-1.4020394 2.038,-2.1030594 3.7291,-2.1030594 1.402,0 2.5367,0.44808 3.4039,1.3442204 0.8673,0.881739 1.3009,2.160839 1.3009,3.837539 0,1.0407 -0.2168,1.9585 -0.6504,2.7535 -0.4192,0.795 -0.9974,1.4093 -1.7345,1.8429 -0.7227,0.4336 -1.5321,0.6504 -2.4283,0.6504 -0.8383,0 -1.5683,-0.1445 -2.1898,-0.4336 -0.607,-0.3036 -1.084,-0.7299 -1.4309,-1.2792 l 0.0217,6.7645 h -2.2765 z m 5.3335,8.1953894 c 0.9395,0 1.6622,-0.2963 2.1681,-0.8889 0.5059,-0.6071 0.7588,-1.3803 0.7588,-2.3199 0,-0.9828 -0.2529,-1.7633 -0.7588,-2.3415 -0.4915,-0.5926 -1.2142,-0.8889 -2.1681,-0.8889 -0.5204,0 -1.0118,0.1301 -1.4743,0.3902 -0.4481,0.2458 -0.8095,0.6071 -1.0841,1.0841 -0.2601,0.4625 -0.3902,1.0045 -0.3902,1.6261 v 0.1517 c 0,0.6215 0.1301,1.178 0.3902,1.6695 0.2746,0.4769 0.636,0.8527 1.0841,1.1274 0.448,0.2601 0.9395,0.3902 1.4743,0.3902 z" style="fill:#285daa" />
  <path d="m 65.839425,3.3313016 h 2.4499 V 17.098761 h 4.5747 v 2.1681 h -7.0246 z" style="fill:#95befa" />
  <path d="m 75.219525,9.3152516 h 2.4282 v 9.9516094 h -2.4282 z m 1.1924,-1.86456 c -0.4481,0 -0.8239,-0.15177 -1.1274,-0.4553 -0.3035,-0.30354 -0.4553,-0.67934 -0.4553,-1.12742 0,-0.40471 0.1518,-0.7516 0.4553,-1.04068 0.3035,-0.28908 0.6793,-0.43362 1.1274,-0.43362 0.4336,0 0.8022,0.14454 1.1057,0.43362 0.3036,0.28908 0.4553,0.63597 0.4553,1.04068 0,0.44808 -0.1517,0.82388 -0.4553,1.12742 -0.289,0.30353 -0.6576,0.4553 -1.1057,0.4553 z" style="fill:#95befa" />
  <path d="m 86.786925,19.483661 c -0.8094,0 -1.5393,-0.1951 -2.1897,-0.5854 -0.636,-0.4047 -1.0769,-0.8672 -1.3226,-1.3876 l -0.0433,1.7562 h -2.2549 V 3.3313016 h 2.2982 v 6.13572 l -0.1084,1.6911394 c 0.2457,-0.578179 0.7227,-1.069619 1.431,-1.4743294 0.7227,-0.41917 1.5032,-0.62875 2.3415,-0.62875 0.9829,0 1.8357,0.22404 2.5584,0.67211 0.7371,0.4336204 1.3008,1.0479204 1.6911,1.8428694 0.3902,0.7805 0.5854,1.6911 0.5854,2.7318 0,1.0552 -0.2313,1.973 -0.6938,2.7535 -0.4481,0.7805 -1.0552,1.3804 -1.8212,1.7995 -0.7516,0.4192 -1.5755,0.6288 -2.4717,0.6288 z m -0.3902,-1.9513 c 0.9395,0 1.6622,-0.2963 2.1681,-0.8889 0.5059,-0.6071 0.7588,-1.3876 0.7588,-2.3416 0,-0.9684 -0.2529,-1.7489 -0.7588,-2.3415 -0.4914,-0.6071 -1.2141,-0.9106 -2.1681,-0.9106 -0.8239,0 -1.5177,0.2891 -2.0814,0.8672 -0.5637,0.5637 -0.8455,1.3081 -0.8455,2.2332 v 0.1517 c 0,0.6215 0.13,1.178 0.3902,1.6695 0.2746,0.4914 0.6288,0.8744 1.0624,1.1491 0.4481,0.2746 0.9395,0.4119 1.4743,0.4119 z" style="fill:#95befa" />
  <path d="m 94.205925,9.3152516 h 2.3416 v 1.9513094 c 0.2312,-0.664899 0.607,-1.199699 1.1274,-1.6044094 0.5203,-0.40471 1.1129,-0.60707 1.7778,-0.60707 0.4625,0 0.780495,0.04336 0.953995,0.13009 l -0.3252,2.3631894 c -0.130095,-0.0867 -0.411995,-0.1301 -0.845595,-0.1301 -0.6793,0 -1.3009,0.2169 -1.8646,0.6505 -0.5492,0.4336 -0.8238,1.1274 -0.8238,2.0814 v 5.1167 h -2.3416 z" style="fill:#95befa" />
  <path d="m 106.76702,19.483661 c -1.185,0 -2.175,-0.2313 -2.97,-0.6938 -0.795,-0.477 -1.38,-1.1057 -1.756,-1.8863 -0.376,-0.7949 -0.564,-1.6622 -0.564,-2.6017 0,-1.0551 0.217,-1.9802 0.651,-2.7751 0.448,-0.795019 1.062,-1.402079 1.842,-1.8212494 0.781,-0.43362 1.663,-0.65043 2.646,-0.65043 1.532,0 2.666,0.42639 3.403,1.2791804 0.752,0.838299 1.128,2.023599 1.128,3.555699 0,0.3902 -0.022,0.795 -0.065,1.2141 h -7.155 c 0.159,0.8817 0.47,1.5177 0.932,1.9079 0.477,0.3903 1.135,0.5854 1.973,0.5854 0.694,0 1.265,-0.0578 1.713,-0.1734 0.448,-0.1156 0.86,-0.2746 1.236,-0.477 l 0.715,1.6694 c -0.361,0.2313 -0.852,0.4337 -1.474,0.6071 -0.621,0.1735 -1.373,0.2602 -2.255,0.2602 z m 2.103,-6.0057 c 0.015,-0.8961 -0.18,-1.5249 -0.585,-1.8862 -0.405,-0.3758 -0.983,-0.5637 -1.734,-0.5637 -1.518,0 -2.393,0.8166 -2.624,2.4499 z" style="fill:#95befa" />
  <g transform="matrix(1.2614816,0,0,1.2614816,-15.815871,34.267316)" style="stroke-width:0.79271859">
    <path d="m 18.635037,-26.371502 c -2.907387,-0.01886 -5.286887,2.181572 -5.304629,4.904883 -0.01568,2.411446 1.176724,3.5887 2.467973,4.863504 0.900225,0.888732 1.84843,1.824853 2.468797,3.259625 0.04185,0.03401 0.06985,0.05671 0.08187,0.06743 a 0.30437795,0.30437795 0 0 0 0.200286,0.0758 0.30484949,0.30484949 0 0 0 0.201346,-0.07315 c 0.0032,-0.0029 0.0092,-0.0054 0.0165,-0.0085 0.02004,-0.0086 0.05051,-0.02168 0.06625,-0.05794 0.618305,-1.421099 1.580007,-2.344607 2.498446,-3.2265 1.30787,-1.255883 2.527916,-2.427479 2.543538,-4.831617 0.01775,-2.723369 -2.332938,-4.954511 -5.240383,-4.973491 z m -0.05069,7.800952 c 1.439606,0.0094 2.614443,-1.167646 2.623933,-2.628943 0.0095,-1.461297 -1.149905,-2.653523 -2.58957,-2.662895 -1.439666,-0.0094 -2.614444,1.167647 -2.623993,2.628944 -0.0095,1.461297 1.149905,2.653523 2.589571,2.662894 z" style="clip-rule:evenodd;fill:#95befa;fill-opacity:1;fill-rule:evenodd;stroke-width:0.79271859" />
    <path d="m 16.699962,-12.357383 c -0.24019,-0.0016 -0.436645,0.26406 -0.438767,0.593253 l -0.01084,1.666237 c -0.0022,0.3291944 0.190796,0.5973244 0.431045,0.5989154 l 3.677114,0.02394 c 0.24019,0.0016 0.436644,-0.264061 0.438766,-0.5932544 l 0.01085,-1.666241 c 0.0022,-0.329248 -0.190796,-0.597379 -0.431045,-0.598911 z" style="clip-rule:evenodd;fill:#285daa;fill-opacity:1;fill-rule:evenodd;stroke-width:0.79271859" />
  </g>
</svg>