<svg xmlns="http://www.w3.org/2000/svg" width="91" height="23" fill="none"  xmlns:v="https://vecta.io/nano"><path fill-rule="evenodd" d="M17.994 16.609h-1.892l2.59-12.526h.205l3.442 6.766 1.023 2.267 1.023-2.267 3.374-6.766h.188l2.693 12.526h-1.875l-1.261-5.845-.375-1.772-.682 1.772-3.033 5.845h-.102l-3.017-5.845-.784-1.772-.358 1.772-1.159 5.845zm2.027-3.541l-.752 3.793a1.3 1.3 0 0 1-1.275 1.047h-1.892a1.3 1.3 0 0 1-1.273-1.563l2.59-12.526a1.3 1.3 0 0 1 1.273-1.037h.205a1.3 1.3 0 0 1 1.159.71l3.305 6.496 3.235-6.486a1.3 1.3 0 0 1 1.163-.72h.188a1.3 1.3 0 0 1 1.271 1.027l1.494 6.948c.086-.28.194-.552.325-.814l.009-.017c.427-.824 1.045-1.485 1.841-1.954.81-.477 1.727-.691 2.704-.691a4.71 4.71 0 0 1 1.761.332l.316.138c.218-.166.491-.265.786-.265h1.755a1.3 1.3 0 0 1 1.255.958 1.3 1.3 0 0 1 1.255-.958h1.772c.294 0 .564.097.782.261.635-.31 1.358-.466 2.149-.466 1.404 0 2.648.461 3.606 1.449.325.331.586.701.79 1.103V4.083a1.3 1.3 0 0 1 1.3-1.3h1.926a1.3 1.3 0 0 1 1.3 1.3v9.522h2.296c.197 0 .384.044.551.122V8.786c0-.368.153-.701.399-.937-.472-.489-.706-1.107-.706-1.772 0-.688.276-1.297.761-1.759.498-.474 1.122-.699 1.783-.699s1.276.233 1.766.699c.219.208.395.446.522.707v-.942a1.3 1.3 0 0 1 1.3-1.3h1.806a1.3 1.3 0 0 1 1.3 1.3v3.454a4.93 4.93 0 0 1 1.58-.255c.971 0 1.882.222 2.683.715a4.63 4.63 0 0 1 1.729 1.805V8.786a1.3 1.3 0 0 1 1.3-1.3h1.841c.241 0 .467.066.661.18.498-.255 1.045-.385 1.623-.385.359 0 .892.02 1.331.24a1.3 1.3 0 0 1 .713 1.04c.268-.232.563-.436.884-.609.823-.456 1.735-.67 2.702-.67 1.435 0 2.745.404 3.651 1.446.866.971 1.21 2.25 1.21 3.654 0 .355-.02.718-.058 1.088a1.3 1.3 0 0 1-.981 1.129l.423.986a1.3 1.3 0 0 1-.494 1.607c-.433.277-.953.479-1.51.634-.635.177-1.351.252-2.122.252-1.097 0-2.116-.214-2.989-.722l-.015-.009c-.827-.496-1.47-1.175-1.883-2.033l-.004-.008c-.383-.81-.568-1.683-.568-2.601 0-.297.018-.588.055-.873a1.3 1.3 0 0 1-.345-.089l-.172-.005c-.231 0-.441.065-.666.236-.031.025-.147.144-.147.611v4.022a1.3 1.3 0 0 1-1.3 1.3h-1.841a1.3 1.3 0 0 1-1.3-1.3v-1.142l-.034.059c-.466.809-1.112 1.451-1.926 1.898a5.22 5.22 0 0 1-2.572.656 4.63 4.63 0 0 1-2.004-.439c-.219.168-.494.268-.791.268h-1.772a1.3 1.3 0 0 1-1.3-1.3V7.175c-.11.233-.257.451-.443.648.262.238.426.581.426.963v7.822a1.3 1.3 0 0 1-1.3 1.3h-1.909c-.362 0-.69-.148-.926-.387-.236.239-.563.387-.926.387h-5.522a1.3 1.3 0 0 1-1.3-1.3v-1.296l-.064.121a4.87 4.87 0 0 1-1.845 1.952c-.782.468-1.65.694-2.573.694a5.8 5.8 0 0 1-1.538-.195l.009 2.862a1.3 1.3 0 0 1-1.3 1.304h-1.79a1.3 1.3 0 0 1-1.3-1.3v-3.663a1.3 1.3 0 0 1-1.209.822h-1.738c-.3 0-.577-.102-.797-.273a4.63 4.63 0 0 1-2.015.444c-.917 0-1.785-.217-2.584-.654l-.018-.01a5.16 5.16 0 0 1-1.119-.866 1.3 1.3 0 0 1-1.299 1.359h-1.875a1.3 1.3 0 0 1-1.271-1.026l-.81-3.754-2.117 4.079a1.3 1.3 0 0 1-1.154.701h-.102a1.3 1.3 0 0 1-1.155-.704l-2.135-4.137zm17.145 3.368l.214-.118.231-.155c.341-.246.595-.517.761-.813l.064-.123.034 1.38h1.738V8.786h-1.755l-.034 1.312c-.091-.227-.273-.454-.545-.682l-.033-.028c-.199-.168-.429-.317-.692-.444l-.28-.124a3.41 3.41 0 0 0-1.278-.239c-.784 0-1.466.17-2.045.511s-1.028.818-1.346 1.432c-.307.614-.46 1.329-.46 2.147 0 .829.176 1.557.528 2.182a3.93 3.93 0 0 0 1.432 1.431c.602.329 1.255.494 1.96.494.549 0 1.051-.114 1.507-.343zm-2.888-5.571c-.398.466-.596 1.074-.596 1.824 0 .761.193 1.38.579 1.858.398.466.966.699 1.704.699a2.33 2.33 0 0 0 .967-.197c.172-.078.334-.178.485-.301l.184-.166a2.24 2.24 0 0 0 .411-.581c.169-.345.253-.742.253-1.191v-.119c0-.489-.102-.926-.307-1.312l-.044-.08a2.29 2.29 0 0 0-.656-.734l-.135-.089-.048-.029c-.339-.197-.71-.295-1.111-.295-.727 0-1.289.239-1.687.716zm2.398 2.802c.169-.176.29-.422.29-.859v-.119c0-.302-.062-.526-.156-.704-.102-.193-.223-.316-.365-.403s-.294-.132-.48-.132c-.414 0-.581.119-.688.248l-.01.012c-.154.181-.285.467-.285.979 0 .524.126.83.279 1.026.101.113.276.231.705.231.313 0 .522-.092.711-.278zm7.814 1.765a2.72 2.72 0 0 0 .343.438c.22.228.48.417.782.568l.179.077c.448.176.962.264 1.543.264.704 0 1.341-.171 1.909-.511a3.57 3.57 0 0 0 1.363-1.449c.341-.625.511-1.346.511-2.164 0-1.318-.341-2.323-1.023-3.017-.682-.704-1.574-1.057-2.676-1.057-.62 0-1.164.12-1.631.36-.151.078-.295.168-.43.271l-.206.172a3.47 3.47 0 0 0-.664.85V8.786h-1.772V20.75h1.79l-.017-5.317zm.549-1.178c.142.2.307.372.496.518l.161.114.055.035c.352.204.739.307 1.159.307.739 0 1.307-.233 1.704-.699.398-.477.596-1.085.596-1.824 0-.773-.199-1.386-.596-1.841-.386-.466-.954-.699-1.704-.699-.3 0-.589.055-.865.166a2.45 2.45 0 0 0-.294.141c-.136.074-.261.162-.376.263-.184.162-.343.358-.476.589l-.085.168c-.148.325-.221.695-.221 1.11v.119c0 .488.102.926.307 1.312l.14.219zm.998-.847a1.15 1.15 0 0 0 .38.398.97.97 0 0 0 .493.123c.438 0 .611-.122.711-.238.165-.201.29-.496.29-.985 0-.548-.137-.827-.275-.985l-.022-.026c-.081-.098-.239-.229-.704-.229a1.03 1.03 0 0 0-.521.14l-.012.007c-.126.069-.242.174-.347.355-.076.138-.137.336-.137.636v.119a1.48 1.48 0 0 0 .145.684zm16.26-6.444c.239-.239.358-.534.358-.886a1.09 1.09 0 0 0-.358-.818c-.239-.227-.528-.341-.869-.341-.352 0-.648.114-.886.341a1.09 1.09 0 0 0-.358.818c0 .352.119.648.358.886s.534.358.886.358.642-.119.869-.358zm4.491 9.646l.034-1.38c.132.279.335.537.61.774l.102.084a3.86 3.86 0 0 0 .328.232l.231.126c.451.223.948.334 1.49.334a3.92 3.92 0 0 0 1.943-.494c.602-.33 1.079-.801 1.431-1.415.364-.614.545-1.335.545-2.164 0-.818-.153-1.534-.46-2.147a3.35 3.35 0 0 0-1.329-1.449c-.568-.352-1.238-.528-2.011-.528a3.6 3.6 0 0 0-1.581.356l-.09.045-.17.093c-.123.07-.237.144-.342.221-.298.218-.525.462-.68.733a1.96 1.96 0 0 0-.102.205l.085-1.329V4.083h-1.806v12.526h1.772zm.49-2.598a2.57 2.57 0 0 0 .586.725c.08.067.164.129.253.185l.15.084a2.18 2.18 0 0 0 1.009.24c.739 0 1.307-.233 1.704-.699.398-.477.596-1.091.596-1.841 0-.761-.199-1.375-.596-1.841-.386-.477-.954-.716-1.704-.716-.387 0-.737.081-1.051.243-.152.078-.295.176-.43.292l-.156.147a2.16 2.16 0 0 0-.433.615c-.155.331-.232.71-.232 1.14v.119c0 .486.101.921.303 1.305zm2.709-.304c.162-.198.289-.496.289-1.001 0-.529-.134-.819-.285-.996l-.022-.026c-.085-.105-.24-.234-.694-.234-.305 0-.512.091-.705.289l-.012.012c-.16.16-.284.394-.284.836v.119c0 .295.059.516.149.692a1.17 1.17 0 0 0 .38.42c.142.085.29.127.471.127.438 0 .611-.122.711-.238zm8.56-3.12c.239-.09.489-.139.75-.146l.071-.001c.341 0 .562.034.665.102l.256-1.858c-.135-.068-.383-.102-.743-.102-.2 0-.386.022-.564.065a2.16 2.16 0 0 0-.426.153c-.144.07-.282.156-.414.258a2.57 2.57 0 0 0-.502.517c-.132.181-.243.382-.331.602l-.053.142V8.786h-1.841v7.822h1.841v-4.022c0-.377.055-.703.164-.977s.269-.49.483-.659a2.61 2.61 0 0 1 .413-.262c.076-.039.153-.072.232-.102zm10.133 2.75l.051-.954c0-1.204-.295-2.136-.886-2.795-.579-.67-1.471-1.005-2.676-1.005-.773 0-1.466.17-2.079.511-.614.329-1.096.807-1.449 1.432-.341.625-.511 1.352-.511 2.181 0 .739.148 1.42.443 2.045.295.614.756 1.108 1.38 1.483.625.364 1.403.545 2.335.545.672 0 1.247-.064 1.727-.192l.046-.012.14-.041c.423-.127.762-.273 1.019-.437l-.562-1.312c-.207.112-.429.206-.664.284l-.308.09c-.352.091-.801.136-1.346.136-.659 0-1.176-.153-1.551-.46-.07-.059-.136-.126-.198-.2-.253-.304-.43-.73-.531-1.278l-.004-.022h5.624zm-5.621-1.3l-.003.022h3.886v-.022-.121c-.008-.502-.108-.887-.298-1.157-.048-.068-.102-.129-.162-.183-.318-.295-.773-.443-1.363-.443-.68 0-1.196.209-1.547.626-.262.31-.432.737-.512 1.278zm-28.016 2.868V4.083h-1.926v12.526h5.522v-1.704h-3.596zm7.356-6.118v7.822h-1.909V8.786h1.909z" fill="#000" fill-opacity=".4"/><path d="M20.295 10.763l-.784-1.772-.358 1.772-1.159 5.845h-1.892l2.591-12.526h.204l3.443 6.766 1.023 2.267 1.023-2.267 3.374-6.766h.188l2.693 12.526h-1.875l-1.261-5.845-.375-1.772-.682 1.772-3.034 5.845h-.102l-3.016-5.845zm15.364 6.016c-.704 0-1.358-.165-1.96-.494a3.93 3.93 0 0 1-1.431-1.432c-.352-.625-.528-1.352-.528-2.181 0-.818.153-1.534.46-2.147.318-.614.767-1.091 1.346-1.432s1.261-.511 2.045-.511a3.41 3.41 0 0 1 1.278.239 3.46 3.46 0 0 1 1.005.596c.273.227.455.454.545.682l.034-1.312h1.755v7.822H38.47l-.034-1.38c-.193.409-.545.773-1.057 1.091a3.28 3.28 0 0 1-1.721.46zm.307-1.534c.648 0 1.193-.222 1.636-.665.443-.455.665-1.045.665-1.772v-.119c0-.489-.102-.926-.307-1.312a2.29 2.29 0 0 0-.835-.903c-.352-.216-.738-.324-1.159-.324-.727 0-1.29.239-1.687.716-.398.466-.596 1.074-.596 1.824 0 .761.193 1.38.579 1.858.398.466.966.699 1.704.699zm6.753-6.459h1.772v1.449c.625-1.102 1.602-1.653 2.931-1.653 1.102 0 1.994.352 2.676 1.057.682.693 1.023 1.699 1.023 3.017 0 .818-.17 1.54-.511 2.164-.33.625-.784 1.108-1.363 1.449-.568.341-1.204.511-1.909.511-.659 0-1.233-.114-1.721-.341a2.76 2.76 0 0 1-1.125-1.005l.017 5.317H42.72V8.786zm4.192 6.442c.739 0 1.307-.233 1.704-.699.398-.477.596-1.085.596-1.824 0-.773-.199-1.386-.596-1.841-.386-.466-.954-.699-1.704-.699-.409 0-.795.102-1.159.307-.352.193-.636.477-.852.852-.204.364-.307.79-.307 1.278v.119c0 .489.102.926.307 1.312.216.375.5.67.852.886.352.204.739.307 1.159.307z" fill="#fff"/><path d="M53.119 4.083h1.926v10.822h3.596v1.704h-5.522V4.083zm7.373 4.703h1.909v7.822h-1.909V8.786zm.937-1.466a1.2 1.2 0 0 1-.886-.358c-.238-.239-.358-.534-.358-.886a1.09 1.09 0 0 1 .358-.818c.239-.227.534-.341.886-.341.341 0 .631.114.869.341a1.09 1.09 0 0 1 .358.818 1.2 1.2 0 0 1-.358.886c-.227.239-.517.358-.869.358zm8.156 9.459a3.28 3.28 0 0 1-1.721-.46c-.5-.318-.846-.682-1.04-1.091l-.034 1.38h-1.772V4.083h1.806v4.823l-.085 1.329c.193-.454.568-.841 1.125-1.159a3.61 3.61 0 0 1 1.841-.494c.773 0 1.443.176 2.011.528a3.35 3.35 0 0 1 1.329 1.449c.307.614.46 1.329.46 2.147 0 .829-.182 1.551-.545 2.164-.352.614-.829 1.085-1.431 1.415a3.92 3.92 0 0 1-1.943.494zm-.307-1.534c.739 0 1.306-.233 1.704-.699.398-.477.597-1.091.597-1.841 0-.761-.199-1.375-.597-1.84-.386-.477-.954-.716-1.704-.716a2.19 2.19 0 0 0-1.636.682c-.443.443-.665 1.028-.665 1.755v.119c0 .489.102.926.307 1.312a2.47 2.47 0 0 0 .835.903c.352.216.739.324 1.159.324zm6.138-6.459h1.841v1.534c.182-.523.477-.943.886-1.261s.875-.477 1.397-.477c.364 0 .614.034.75.102l-.256 1.858c-.102-.068-.324-.102-.665-.102-.534 0-1.023.17-1.466.511-.432.341-.648.886-.648 1.636v4.022h-1.841V8.786zm9.874 7.993c-.932 0-1.71-.182-2.335-.545-.625-.375-1.085-.869-1.38-1.483a4.73 4.73 0 0 1-.443-2.045c0-.829.17-1.556.511-2.181.352-.625.835-1.102 1.449-1.432.614-.341 1.307-.511 2.079-.511 1.204 0 2.096.335 2.676 1.005.591.659.886 1.591.886 2.795 0 .307-.017.625-.051.954h-5.624c.125.693.369 1.193.733 1.5.375.307.892.46 1.551.46.545 0 .994-.046 1.346-.136a4.27 4.27 0 0 0 .971-.375l.562 1.312c-.284.182-.67.341-1.159.477s-1.079.204-1.772.204zm1.653-4.721c.011-.704-.142-1.199-.46-1.483-.318-.295-.773-.443-1.363-.443-1.193 0-1.88.642-2.062 1.926h3.886z" fill="#e1e3e9"/><g fill-rule="evenodd"><path d="M8.422 15.936l-.002.002c-.304.261-.678.384-1.04.384s-.736-.123-1.04-.384l-.002-.002-.045-.036-.002-.002-.206-.167H4.498a.68.68 0 0 0-.682.682v1.906a.68.68 0 0 0 .682.682h5.764a.68.68 0 0 0 .682-.682v-1.906a.68.68 0 0 0-.682-.682H8.676l-.209.169-.045.036zm-1.161-.938a.3.3 0 0 0 .118.024c.07 0 .14-.024.195-.072l.08-.065h0c.657-.527 4.838-3.877 4.838-7.845 0-2.641-2.293-4.79-5.113-4.79s-5.113 2.149-5.113 4.79c0 3.34 2.961 6.241 4.291 7.391h.004l.041.039.502.415.08.065a.65.65 0 0 0 .076.048zm-2.609-.567a17.5 17.5 0 0 1-1.225-1.362C2.23 11.582.967 9.464.967 7.039.967 3.602 3.924.95 7.38.95s6.413 2.652 6.413 6.09c0 2.424-1.263 4.543-2.46 6.029a17.5 17.5 0 0 1-1.225 1.362h.156a1.98 1.98 0 0 1 1.982 1.982v1.906a1.98 1.98 0 0 1-1.982 1.982H4.498a1.98 1.98 0 0 1-1.982-1.982v-1.906a1.98 1.98 0 0 1 1.982-1.982h.154zm3.955-7.182c0 .717-.568 1.266-1.228 1.266s-1.228-.548-1.228-1.266.568-1.266 1.228-1.266 1.228.548 1.228 1.266zM7.38 9.814c1.396 0 2.528-1.149 2.528-2.566S8.776 4.683 7.38 4.683 4.852 5.832 4.852 7.249 5.984 9.814 7.38 9.814zm2.12 7.985H5.262v-.868H9.5v.868z" fill="#000" fill-opacity=".4"/><path d="M2.267 7.039c0-2.641 2.293-4.79 5.113-4.79s5.113 2.149 5.113 4.79c0 3.968-4.181 7.319-4.838 7.845l-.08.065c-.055.048-.125.072-.195.072s-.14-.024-.195-.072l-.08-.065c-.657-.526-4.838-3.877-4.838-7.845zM7.38 9.814c1.396 0 2.528-1.149 2.528-2.566S8.776 4.683 7.38 4.683 4.852 5.832 4.852 7.249 5.984 9.814 7.38 9.814z" fill="#e1e3e9"/><path d="M4.498 15.731a.68.68 0 0 0-.682.682v1.906a.68.68 0 0 0 .682.682h5.764a.68.68 0 0 0 .682-.682v-1.906a.68.68 0 0 0-.682-.682H4.498zM9.5 16.932H5.262v.868H9.5v-.868z" fill="#fff"/></g></svg>