<svg xmlns="http://www.w3.org/2000/svg" height="23" fill="none" viewBox="0 0 184.444 292.143">
    <path fill="#95BEFA" fill-rule="evenodd" d="M 0.804 87.504 C 0.804 39.49 41.848 0.425 92.304 0.425 C 142.76 0.425 183.804 39.49 183.804 87.504 C 183.804 159.653 122.837 169.242 97.218 230.142 C 96.85 231.017 96 231.134 95.789 231.323 C 94.827 232.173 93.587 232.64 92.304 232.636 C 91.021 232.64 89.781 232.173 88.819 231.323 C 88.609 231.136 88.122 230.738 87.391 230.143 C 60.787 168.74 0.804 159.656 0.804 87.504 Z M 92.304 137.957 C 117.288 137.957 137.542 117.072 137.542 91.309 C 137.542 65.546 117.288 44.661 92.304 44.661 C 67.319 44.661 47.065 65.546 47.065 91.309 C 47.065 117.072 67.319 137.957 92.304 137.957 Z" clip-rule="evenodd"></path>
    <path fill="#285DAA" fill-rule="evenodd" d="M 60.07 240.517 C 55.793 240.517 52.325 245.148 52.325 250.861 L 52.325 279.778 C 52.325 285.491 55.793 290.122 60.07 290.122 L 125.55 290.122 C 129.828 290.122 133.295 285.491 133.295 279.778 L 133.295 250.861 C 133.295 245.148 129.828 240.517 125.55 240.517 L 60.07 240.517 Z" clip-rule="evenodd"></path>
</svg>