<?xml version="1.0" encoding="UTF-8" standalone="no"?>
<svg xmlns="http://www.w3.org/2000/svg"
   width="88"
   height="23"
   fill="none">
  <path d="M17.408 16.796h-1.827l2.501-12.095h.198l3.324 6.533.988 2.19.988-2.19 3.258-6.533h.181l2.6 12.095h-1.81l-1.218-5.644-.362-1.71-.658 1.71-2.929 5.644h-.098l-2.914-5.644-.757-1.71-.345 1.71zm1.958-3.42l-.726 3.663a1.255 1.255 0 01-1.232 1.011h-1.827a1.255 1.255 0 01-1.229-1.509l2.501-12.095a1.255 1.255 0 011.23-1.001h.197a1.255 1.255 0 011.12.685l3.19 6.273 3.125-6.263a1.255 1.255 0 011.123-.695h.181a1.255 1.255 0 011.227.991l1.443 6.71a5.11 5.11 0 01.314-.787l.009-.016a4.623 4.623 0 011.777-1.887c.782-.46 1.668-.667 2.611-.667a4.548 4.548 0 011.7.32l.306.134c.21-.16.474-.256.759-.256h1.694a1.255 1.255 0 011.212.925 1.255 1.255 0 011.212-.925h1.711c.284 0 .545.094.755.252.613-.3 1.312-.45 2.075-.45 1.356 0 2.557.445 3.482 1.4.314.319.566.676.763 1.064V4.701a1.255 1.255 0 011.255-1.255h1.86A1.255 1.255 0 0154.44 4.7v9.194h2.217c.19 0 .37.043.532.118v-4.77c0-.356.147-.678.385-.906a2.416 2.416 0 01-.682-1.71c0-.665.267-1.253.735-1.7a2.448 2.448 0 011.722-.674 2.43 2.43 0 011.705.675c.211.2.381.43.504.683V4.7a1.255 1.255 0 011.255-1.255h1.744A1.255 1.255 0 0165.812 4.7v3.335a4.76 4.76 0 011.526-.246c.938 0 1.817.214 2.59.69a4.47 4.47 0 011.67 1.743v-.98a1.255 1.255 0 011.256-1.256h1.777c.233 0 .451.064.639.174a3.407 3.407 0 011.567-.372c.346 0 .861.02 1.285.232a1.255 1.255 0 01.689 1.004 4.73 4.73 0 01.853-.588c.795-.44 1.675-.647 2.61-.647 1.385 0 2.65.39 3.525 1.396.836.938 1.168 2.173 1.168 3.528 0 .343-.02.694-.056 1.051a1.255 1.255 0 01-.947 1.09l.408.952a1.255 1.255 0 01-.477 1.552c-.418.268-.92.463-1.458.612-.613.171-1.304.244-2.049.244-1.06 0-2.043-.207-2.886-.698l-.015-.008c-.798-.48-1.419-1.135-1.818-1.963l-.004-.008a5.815 5.815 0 01-.548-2.512c0-.286.017-.567.053-.843a1.255 1.255 0 01-.333-.086l-.166-.004c-.223 0-.426.062-.643.228-.03.024-.142.139-.142.59v3.883a1.255 1.255 0 01-1.256 1.256h-1.777a1.255 1.255 0 01-1.256-1.256v-1.103l-.032.057a4.778 4.778 0 01-1.86 1.833 5.04 5.04 0 01-2.484.634 4.47 4.47 0 01-1.935-.424 1.252 1.252 0 01-.764.258h-1.71a1.255 1.255 0 01-1.256-1.255V7.687a2.402 2.402 0 01-.428.625c.253.23.412.561.412.93v7.553a1.255 1.255 0 01-1.256 1.255h-1.843c-.35 0-.666-.142-.894-.373-.228.23-.544.373-.894.373H51.32a1.255 1.255 0 01-1.256-1.255v-1.251l-.061.117a4.703 4.703 0 01-1.782 1.884 4.767 4.767 0 01-2.485.67 5.6 5.6 0 01-1.485-.188l.009 2.764a1.255 1.255 0 01-1.255 1.259h-1.729a1.255 1.255 0 01-1.255-1.255v-3.537a1.255 1.255 0 01-1.167.793h-1.679a1.25 1.25 0 01-.77-.263 4.47 4.47 0 01-1.945.429c-.885 0-1.724-.21-2.495-.632l-.017-.01a4.983 4.983 0 01-1.081-.836 1.255 1.255 0 01-1.254 1.312h-1.81a1.255 1.255 0 01-1.228-.99l-.782-3.625-2.044 3.939a1.255 1.255 0 01-1.115.676h-.098a1.255 1.255 0 01-1.116-.68l-2.061-3.994zM35.92 16.63l.207-.114.223-.15c.329-.237.574-.499.735-.785l.061-.118.033 1.332h1.678V9.242h-1.694l-.033 1.267c-.088-.22-.264-.438-.526-.658l-.032-.028a3.16 3.16 0 00-.668-.428l-.27-.12a3.293 3.293 0 00-1.235-.23c-.757 0-1.415.163-1.974.493-.56.329-.993.79-1.3 1.382-.297.593-.444 1.284-.444 2.074 0 .8.17 1.503.51 2.107a3.795 3.795 0 001.382 1.381 3.883 3.883 0 001.893.477c.53 0 1.015-.11 1.455-.33zm-2.789-5.38c-.384.45-.575 1.038-.575 1.762 0 .735.186 1.332.559 1.794.384.45.933.675 1.645.675a2.25 2.25 0 00.934-.19c.166-.076.323-.172.468-.29l.178-.161a2.163 2.163 0 00.397-.561c.163-.333.244-.717.244-1.15v-.115c0-.472-.098-.894-.296-1.267l-.043-.077a2.211 2.211 0 00-.633-.709l-.13-.086-.047-.028a2.099 2.099 0 00-1.073-.285c-.702 0-1.244.231-1.629.692zm2.316 2.706c.163-.17.28-.407.28-.83v-.114c0-.292-.06-.508-.15-.68a.958.958 0 00-.353-.389.851.851 0 00-.464-.127c-.4 0-.56.114-.664.239l-.01.012c-.148.174-.275.45-.275.945 0 .506.122.801.27.99.097.11.266.224.68.224.303 0 .504-.09.687-.269zm7.545 1.705a2.626 2.626 0 00.331.423c.213.22.464.402.755.548l.173.074c.433.17.93.255 1.49.255.68 0 1.295-.165 1.844-.493a3.447 3.447 0 001.316-1.4c.329-.603.493-1.299.493-2.089 0-1.273-.33-2.243-.988-2.913-.658-.68-1.52-1.02-2.584-1.02-.598 0-1.124.115-1.575.347a2.807 2.807 0 00-.415.262l-.199.166a3.35 3.35 0 00-.64.82V9.242h-1.712v11.553h1.729l-.017-5.134zm.53-1.138c.137.193.297.36.48.5l.155.11.053.034c.34.197.713.297 1.119.297.714 0 1.262-.225 1.645-.675.385-.46.576-1.048.576-1.762 0-.746-.192-1.338-.576-1.777-.372-.45-.92-.675-1.645-.675-.29 0-.569.053-.835.16a2.366 2.366 0 00-.284.136 1.99 1.99 0 00-.363.254 2.237 2.237 0 00-.46.569l-.082.162a2.56 2.56 0 00-.213 1.072v.115c0 .471.098.894.296 1.267l.135.211zm.964-.818a1.11 1.11 0 00.367.385.937.937 0 00.476.118c.423 0 .59-.117.687-.23.159-.194.28-.478.28-.95 0-.53-.133-.8-.266-.952l-.021-.025c-.078-.094-.231-.221-.68-.221a.995.995 0 00-.503.135l-.012.007a.859.859 0 00-.335.343c-.073.133-.132.324-.132.614v.115a1.43 1.43 0 00.14.66zm15.7-6.222c.232-.23.346-.516.346-.856a1.053 1.053 0 00-.345-.79c-.231-.219-.51-.329-.84-.329-.34 0-.625.11-.855.33a1.053 1.053 0 00-.346.79c0 .34.115.625.346.855.23.23.516.346.856.346.34 0 .62-.115.839-.346zm4.337 9.314l.033-1.332c.128.269.324.518.59.747l.098.081a3.727 3.727 0 00.316.224l.223.122c.436.215.916.322 1.44.322a3.785 3.785 0 001.875-.477 3.52 3.52 0 001.382-1.366c.352-.593.526-1.29.526-2.09 0-.79-.147-1.48-.444-2.073a3.235 3.235 0 00-1.283-1.399c-.549-.34-1.195-.51-1.942-.51a3.476 3.476 0 00-1.527.344l-.086.043-.165.09a3.412 3.412 0 00-.33.214c-.288.21-.507.446-.656.707a1.893 1.893 0 00-.099.198l.082-1.283V4.701h-1.744v12.095zm.473-2.509a2.482 2.482 0 00.566.7c.078.065.159.125.245.18l.144.08a2.105 2.105 0 00.975.232c.713 0 1.262-.225 1.645-.675.384-.46.576-1.053.576-1.778 0-.734-.192-1.327-.576-1.777-.373-.46-.921-.692-1.645-.692a2.18 2.18 0 00-1.015.235c-.147.075-.285.17-.415.282l-.15.142a2.086 2.086 0 00-.42.594c-.149.32-.223.685-.223 1.1v.115c0 .47.097.89.293 1.26zm2.616-.293c.157-.191.28-.479.28-.967 0-.51-.13-.79-.276-.961l-.021-.026c-.082-.1-.232-.225-.67-.225a.868.868 0 00-.681.279l-.012.011c-.154.155-.274.38-.274.807v.115c0 .285.057.499.144.669a1.13 1.13 0 00.367.405c.137.082.28.123.455.123.423 0 .59-.118.686-.23zm8.266-3.013c.23-.087.472-.134.724-.14l.069-.002c.329 0 .542.033.642.099l.247-1.794c-.13-.066-.37-.099-.717-.099a2.3 2.3 0 00-.545.063 2.086 2.086 0 00-.411.148c-.14.067-.273.15-.4.249a2.482 2.482 0 00-.485.499 2.659 2.659 0 00-.32.581l-.05.137v-1.48h-1.778v7.553h1.777v-3.884c0-.364.053-.678.159-.943a1.49 1.49 0 01.466-.636 2.52 2.52 0 01.399-.253 2.19 2.19 0 01.224-.099zm9.784 2.656l.05-.922c0-1.162-.285-2.062-.856-2.698-.559-.647-1.42-.97-2.584-.97-.746 0-1.415.163-2.007.493a3.462 3.462 0 00-1.4 1.382c-.329.604-.493 1.306-.493 2.106 0 .714.143 1.371.428 1.975.285.593.73 1.07 1.332 1.432.604.351 1.355.526 2.255.526.649 0 1.204-.062 1.668-.185l.044-.012.135-.04c.409-.122.736-.263.984-.421l-.542-1.267c-.2.108-.415.199-.642.274l-.297.087c-.34.088-.773.131-1.3.131-.636 0-1.135-.147-1.497-.444a1.573 1.573 0 01-.192-.193c-.244-.294-.415-.705-.512-1.234l-.004-.021h5.43zm-5.427-1.256l-.003.022h3.752v-.138c-.007-.485-.104-.857-.288-1.118a1.056 1.056 0 00-.156-.176c-.307-.285-.746-.428-1.316-.428-.657 0-1.155.202-1.494.604-.253.3-.417.712-.494 1.234zm-27.053 2.77V4.7h-1.86v12.095h5.333v-1.645zm7.103-5.908v7.553h-1.843V9.242h1.843z" fill="#000" fill-opacity=".4" fill-rule="evenodd"/>
  <path d="M19.63 11.151l-.757-1.71-.345 1.71-1.12 5.644h-1.827L18.083 4.7h.197l3.325 6.533.988 2.19.988-2.19L26.839 4.7h.181l2.6 12.095h-1.81l-1.218-5.644-.362-1.71-.658 1.71-2.93 5.644h-.098l-2.913-5.644zm14.836 5.81c-.68 0-1.311-.16-1.893-.478a3.795 3.795 0 01-1.381-1.382c-.34-.604-.51-1.306-.51-2.106 0-.79.147-1.482.444-2.074a3.364 3.364 0 011.3-1.382c.559-.33 1.217-.494 1.974-.494a3.293 3.293 0 011.234.231 3.341 3.341 0 01.97.575c.264.22.44.439.527.659l.033-1.267h1.694v7.553H37.18l-.033-1.332c-.186.395-.526.746-1.02 1.053a3.167 3.167 0 01-1.662.444zm.296-1.482c.626 0 1.152-.214 1.58-.642.428-.44.642-1.01.642-1.711v-.115c0-.472-.098-.894-.296-1.267a2.211 2.211 0 00-.807-.872 2.098 2.098 0 00-1.119-.313c-.702 0-1.245.231-1.629.692-.384.45-.575 1.037-.575 1.76 0 .736.186 1.333.559 1.795.384.45.933.675 1.645.675zm6.521-6.237h1.711v1.4c.604-1.065 1.547-1.597 2.83-1.597 1.064 0 1.926.34 2.584 1.02.659.67.988 1.641.988 2.914 0 .79-.164 1.487-.493 2.09a3.456 3.456 0 01-1.316 1.399 3.51 3.51 0 01-1.844.493c-.636 0-1.19-.11-1.662-.329a2.665 2.665 0 01-1.086-.97l.017 5.134h-1.728V9.242zm4.048 6.22c.714 0 1.262-.224 1.645-.674.385-.46.576-1.048.576-1.762 0-.746-.192-1.338-.576-1.777-.372-.45-.92-.675-1.645-.675-.395 0-.768.098-1.12.296-.34.187-.613.46-.822.823-.197.351-.296.763-.296 1.234v.115c0 .472.098.894.296 1.267.209.362.483.647.823.855.34.197.713.297 1.119.297z" fill="#fff" />
  <path d="M51.325 4.7h1.86v10.45h3.473v1.646h-5.333zm7.12 4.542h1.843v7.553h-1.843zm.905-1.415a1.159 1.159 0 01-.856-.346 1.165 1.165 0 01-.346-.856 1.053 1.053 0 01.346-.79c.23-.219.516-.329.856-.329.329 0 .609.11.839.33a1.053 1.053 0 01.345.79 1.159 1.159 0 01-.345.855c-.22.23-.5.346-.84.346zm7.875 9.133a3.167 3.167 0 01-1.662-.444c-.482-.307-.817-.658-1.004-1.053l-.033 1.332h-1.71V4.701h1.743v4.657l-.082 1.283c.186-.438.548-.812 1.086-1.119a3.486 3.486 0 011.778-.477c.746 0 1.393.17 1.942.51a3.235 3.235 0 011.283 1.4c.297.592.444 1.282.444 2.072 0 .8-.175 1.498-.526 2.09a3.52 3.52 0 01-1.382 1.366 3.785 3.785 0 01-1.876.477zm-.296-1.481c.713 0 1.26-.225 1.645-.675.384-.46.577-1.053.577-1.778 0-.734-.193-1.327-.577-1.776-.373-.46-.921-.692-1.645-.692a2.115 2.115 0 00-1.58.659c-.428.428-.642.992-.642 1.694v.115c0 .473.098.895.296 1.267a2.385 2.385 0 00.807.872 2.1 2.1 0 001.119.313zm5.927-6.237h1.777v1.481c.176-.505.46-.91.856-1.217a2.14 2.14 0 011.349-.46c.351 0 .593.032.724.098l-.247 1.794c-.099-.066-.313-.099-.642-.099-.516 0-.988.164-1.416.494-.417.329-.626.855-.626 1.58v3.883h-1.777V9.242zm9.534 7.718c-.9 0-1.651-.175-2.255-.526-.603-.362-1.047-.84-1.332-1.432a4.567 4.567 0 01-.428-1.975c0-.8.164-1.502.493-2.106a3.462 3.462 0 011.4-1.382c.592-.33 1.262-.494 2.007-.494 1.163 0 2.024.324 2.584.97.57.637.856 1.537.856 2.7 0 .296-.017.603-.05.92h-5.43c.12.67.356 1.153.708 1.45.362.296.86.443 1.497.443.526 0 .96-.044 1.3-.131a4.123 4.123 0 00.938-.362l.542 1.267c-.274.175-.647.329-1.119.46-.472.132-1.042.197-1.711.197zm1.596-4.558c.01-.68-.137-1.158-.444-1.432-.307-.285-.746-.428-1.316-.428-1.152 0-1.815.62-1.991 1.86h3.752z" fill="#e1e3e9" />
  <path style="fill:#ffffff;fill-rule:evenodd;stroke-width:1.03600001" d="m 5.0739453,15.948 a 0.48421893,0.657 0 0 0 -0.4856929,0.659 v 1.84 a 0.48421893,0.657 0 0 0 0.4856929,0.659 h 4.1014891 a 0.48421893,0.657 0 0 0 0.485693,-0.659 v -1.84 a 0.48421893,0.657 0 0 0 -0.485693,-0.659 z m 3.5597829,1.16 H 5.6171255 v 0.838 h 3.0166027 z" />
  <g transform="matrix(0.88807147,0,0,0.88807147,15.552895,2.8502257)" style="stroke-width:1.12603545">
    <path d="m -9.4082031,-1.4160156 c -3.8328819,-0.024863 -7.0559499,2.9116638 -7.0800779,6.6152344 -0.02003,3.0804501 1.65334,4.8320152 3.107422,6.2675782 0.903298,0.891765 1.721287,1.741047 2.320312,2.902344 l -0.525391,-0.0039 c -0.542753,-0.0036 -0.992403,0.303569 -1.240234,0.638672 -0.247831,0.335103 -0.358735,0.718845 -0.361328,1.121094 l -0.01172,1.876953 c -0.0027,0.40234 0.104152,0.786682 0.347657,1.125 0.243506,0.338318 0.687955,0.652657 1.230468,0.65625 l 4.1406252,0.02734 c 0.542755,0.0036 0.9904509,-0.305521 1.2382813,-0.640625 0.2478304,-0.335105 0.360689,-0.718845 0.3632813,-1.121094 l 0.011719,-1.875 c 0.00271,-0.402333 -0.1041224,-0.788598 -0.3476563,-1.126953 -0.2435337,-0.338355 -0.6878777,-0.652791 -1.2304687,-0.65625 l -0.5175781,-0.0039 c 0.596504,-1.144976 1.4247145,-1.982925 2.3476562,-2.869141 1.4728121,-1.41426 3.1811769,-3.1494593 3.2011719,-6.2265624 -0.017067,-3.5895959 -2.9242563,-6.6837722 -6.9941406,-6.7070312 z m -0.00586,1.09960935 v 0.001953 c 3.274073,0.0213734 5.9203806,2.53282525 5.9003906,5.59960935 -0.017592,2.7072991 -1.3904802,4.0271576 -2.8632812,5.4414059 -1.034254,0.9931 -2.1181802,2.032514 -2.8144531,3.632813 -0.01772,0.04084 -0.051649,0.05475 -0.074219,0.06445 -0.00822,0.0035 -0.015931,0.0065 -0.019531,0.0098 a 0.34329086,0.34329086 0 0 1 -0.2265626,0.08398 0.34275986,0.34275986 0 0 1 -0.2246093,-0.08594 c -0.01353,-0.01207 -0.044667,-0.03787 -0.091797,-0.07617 -0.6985953,-1.615696 -1.7675073,-2.669122 -2.7812503,-3.669922 -1.454075,-1.4355565 -2.796957,-2.7629877 -2.779297,-5.4785159 0.01998,-3.0667189 2.700604,-5.54467548 5.9746098,-5.52343748 z m -0.019531,2.82617185 c -1.6212079,-0.010585 -2.9443249,1.3153712 -2.9550779,2.9609375 -0.0107,1.645565 1.294809,2.9874949 2.9160155,2.9980469 h 0.00195 c 1.62114,0.01059 2.942438,-1.3153715 2.953125,-2.9609375 0.0107,-1.6455661 -1.2948096,-2.9874931 -2.9160157,-2.9980469 z m -0.00586,1.0996094 c 1.017795,0.00663 1.8291556,0.8307442 1.8222656,1.890625 -0.0069,1.059862 -0.8299742,1.8738354 -1.8476563,1.8671875 -1.0177962,-0.00662 -1.8291572,-0.8307463 -1.8222652,-1.890625 0.0069,-1.0599157 0.829877,-1.8738327 1.8476559,-1.8671875 z m -2.1542969,11.857422 4.140625,0.02539 c 0.270544,0.0017 0.4888281,0.305015 0.4863281,0.675781 l -0.013672,1.875 c -0.00239,0.370705 -0.2236626,0.669768 -0.4941406,0.667969 l -4.1406245,-0.02539 c -0.270544,-0.0018 -0.486875,-0.305076 -0.484375,-0.675781 l 0.01172,-1.875 c 0.0024,-0.370704 0.223663,-0.669769 0.494141,-0.667969 z" style="color:#000000;font-style:normal;font-variant:normal;font-weight:normal;font-stretch:normal;font-size:medium;line-height:normal;font-family:sans-serif;font-variant-ligatures:normal;font-variant-position:normal;font-variant-caps:normal;font-variant-numeric:normal;font-variant-alternates:normal;font-feature-settings:normal;text-indent:0;text-align:start;text-decoration:none;text-decoration-line:none;text-decoration-style:solid;text-decoration-color:#000000;letter-spacing:normal;word-spacing:normal;text-transform:none;writing-mode:lr-tb;direction:ltr;text-orientation:mixed;dominant-baseline:auto;baseline-shift:baseline;text-anchor:start;white-space:normal;shape-padding:0;clip-rule:evenodd;display:inline;overflow:visible;visibility:visible;opacity:1;isolation:auto;mix-blend-mode:normal;color-interpolation:sRGB;color-interpolation-filters:linearRGB;solid-color:#000000;solid-opacity:1;vector-effect:none;fill:#000000;fill-opacity:0.4;fill-rule:evenodd;stroke:none;stroke-width:2.47727823;stroke-linecap:butt;stroke-linejoin:miter;stroke-miterlimit:4;stroke-dasharray:none;stroke-dashoffset:0;stroke-opacity:1;color-rendering:auto;image-rendering:auto;shape-rendering:auto;text-rendering:auto;enable-background:accumulate" />
    <path d="m -9.415055,-0.3162834 c -3.274006,-0.021238 -5.95356,2.4566671 -5.973539,5.523386 -0.01766,2.715528 1.325108,4.041233 2.779183,5.4767894 1.013743,1.0008 2.081516,2.054966 2.780111,3.670662 0.04713,0.0383 0.07866,0.06386 0.09219,0.07593 a 0.34275986,0.34275986 0 0 0 0.225542,0.08536 0.34329086,0.34329086 0 0 0 0.226735,-0.08237 c 0.0036,-0.0033 0.01036,-0.0061 0.01858,-0.0096 0.02257,-0.0097 0.05688,-0.02441 0.0746,-0.06525 0.696273,-1.600299 1.779245,-2.640261 2.813499,-3.63336 1.472801,-1.4142494 2.846694,-2.7335824 2.864286,-5.4408814 0.01999,-3.0667842 -2.62712,-5.5792721 -5.901193,-5.6006455 z m -0.05708,8.784648 c 1.62114,0.01059 2.944123,-1.314885 2.95481,-2.960451 0.0107,-1.6455661 -1.294907,-2.9881312 -2.916113,-2.998685 -1.621208,-0.010585 -2.944125,1.3148867 -2.954878,2.960453 -0.0107,1.645565 1.294908,2.988131 2.916115,2.998683 z" style="clip-rule:evenodd;fill:#e1e3e9;fill-opacity:1;fill-rule:evenodd;stroke:none;stroke-width:2.47727823;stroke-miterlimit:4;stroke-dasharray:none;stroke-opacity:0.4"/>
    <path d="m -11.594141,15.465008 c -0.270478,-0.0018 -0.491706,0.297358 -0.494096,0.668062 l -0.01221,1.876349 c -0.0025,0.370705 0.214856,0.672646 0.4854,0.674438 l 4.140796,0.02696 c 0.270478,0.0018 0.491705,-0.297359 0.494094,-0.668064 l 0.01222,-1.876353 c 0.0025,-0.370766 -0.214855,-0.672708 -0.485399,-0.674433 z" style="clip-rule:evenodd;fill:#ffffff;fill-opacity:1;fill-rule:evenodd;stroke:none;stroke-width:2.47727823;stroke-miterlimit:4;stroke-dasharray:none;stroke-opacity:0.4" />
  </g>
</svg>
